<?xml version="1.0" encoding="UTF-8" standalone="no"?>
<!DOCTYPE svg PUBLIC "-//W3C//DTD SVG 1.1//EN" "http://www.w3.org/Graphics/SVG/1.1/DTD/svg11.dtd">
<svg version="1.1" xmlns="http://www.w3.org/2000/svg" xmlns:xlink="http://www.w3.org/1999/xlink" preserveAspectRatio="xMidYMid meet" viewBox="0 0 1920 1200" width="1920" height="1200"><defs><path d="M1161.77 902.51L1310.51 1200L1013.01 1200L715.53 1200L864.26 902.51L1013.01 605.01L1161.77 902.51Z" id="c3eZTo2w7b"></path><linearGradient id="gradiente5b7hbVAy" gradientUnits="userSpaceOnUse" x1="1013.02" y1="1200" x2="1013.02" y2="605.01"><stop style="stop-color: #fcccd5;stop-opacity: 1" offset="0%"></stop><stop style="stop-color: #f9dfe8;stop-opacity: 1" offset="100%"></stop></linearGradient><path d="M184.95 891.12L339.39 1200L30.5 1200L-278.37 1200L-123.94 891.12L30.5 582.24L184.95 891.12Z" id="a1H6jR4fQ5"></path><linearGradient id="gradientadEtMj0sx" gradientUnits="userSpaceOnUse" x1="30.51" y1="1200" x2="30.51" y2="582.24"><stop style="stop-color: #eae7f3;stop-opacity: 1" offset="0%"></stop><stop style="stop-color: #efeff8;stop-opacity: 1" offset="100%"></stop></linearGradient><path d="M1466.23 965.68L1583.09 1199.41L1349.36 1199.41L1115.64 1199.41L1232.49 965.68L1349.36 731.96L1466.23 965.68Z" id="dMymZBUib"></path><linearGradient id="gradientc2GhGmR4OJ" gradientUnits="userSpaceOnUse" x1="1349.37" y1="1199.41" x2="1349.37" y2="731.96"><stop style="stop-color: #eae7f3;stop-opacity: 1" offset="0%"></stop><stop style="stop-color: #efeff8;stop-opacity: 1" offset="100%"></stop></linearGradient><path d="M1673.58 974.23L1786.17 1199.41L1560.98 1199.41L1335.8 1199.41L1448.38 974.23L1560.98 749.04L1673.58 974.23Z" id="a4DlWz1VRS"></path><linearGradient id="gradienta3TY1Yo3" gradientUnits="userSpaceOnUse" x1="1560.99" y1="1199.41" x2="1560.99" y2="749.04"><stop style="stop-color: #eae7f3;stop-opacity: 1" offset="0%"></stop><stop style="stop-color: #efeff8;stop-opacity: 1" offset="100%"></stop></linearGradient><path d="M595.69 968.53L717.85 1199.41L473.52 1199.41L229.19 1199.41L351.34 968.53L473.52 737.65L595.69 968.53Z" id="b2mUqfdTrL"></path><linearGradient id="gradientfO0SaOD1B" gradientUnits="userSpaceOnUse" x1="473.52" y1="1199.41" x2="473.52" y2="737.65"><stop style="stop-color: #eae7f3;stop-opacity: 1" offset="0%"></stop><stop style="stop-color: #efeff8;stop-opacity: 1" offset="100%"></stop></linearGradient><path d="M328.3 991.31L432.35 1199.41L224.25 1199.41L16.14 1199.41L120.19 991.31L224.25 783.2L328.3 991.31Z" id="aJuKj49e6"></path><linearGradient id="gradientb7D9kmgoSP" gradientUnits="userSpaceOnUse" x1="224.25" y1="1199.41" x2="224.25" y2="783.2"><stop style="stop-color: #eae7f3;stop-opacity: 1" offset="0%"></stop><stop style="stop-color: #efeff8;stop-opacity: 1" offset="100%"></stop></linearGradient><path d="M2032.14 911.03L2176.33 1199.41L1887.94 1199.41L1599.56 1199.41L1743.74 911.03L1887.94 622.64L2032.14 911.03Z" id="bcwY8Ki75"></path><linearGradient id="gradientcNkTqyuM" gradientUnits="userSpaceOnUse" x1="1887.95" y1="1199.41" x2="1887.95" y2="622.64"><stop style="stop-color: #eae7f3;stop-opacity: 1" offset="0%"></stop><stop style="stop-color: #efeff8;stop-opacity: 1" offset="100%"></stop></linearGradient><path d="M875.58 919.87L1015.34 1199.41L735.8 1199.41L456.26 1199.41L596.02 919.87L735.8 640.33L875.58 919.87Z" id="bam21LNsU0"></path><linearGradient id="gradientbbs0S9DSa" gradientUnits="userSpaceOnUse" x1="735.8" y1="1199.41" x2="735.8" y2="640.33"><stop style="stop-color: #eae7f3;stop-opacity: 1" offset="0%"></stop><stop style="stop-color: #efeff8;stop-opacity: 1" offset="100%"></stop></linearGradient></defs><g><g><g><use xlink:href="#c3eZTo2w7b" opacity="1" fill="url(#gradiente5b7hbVAy)"></use></g><g><use xlink:href="#a1H6jR4fQ5" opacity="1" fill="url(#gradientadEtMj0sx)"></use></g><g><use xlink:href="#dMymZBUib" opacity="1" fill="url(#gradientc2GhGmR4OJ)"></use></g><g><use xlink:href="#a4DlWz1VRS" opacity="1" fill="url(#gradienta3TY1Yo3)"></use></g><g><use xlink:href="#b2mUqfdTrL" opacity="1" fill="url(#gradientfO0SaOD1B)"></use></g><g><use xlink:href="#aJuKj49e6" opacity="1" fill="url(#gradientb7D9kmgoSP)"></use></g><g><use xlink:href="#bcwY8Ki75" opacity="1" fill="url(#gradientcNkTqyuM)"></use></g><g><use xlink:href="#bam21LNsU0" opacity="1" fill="url(#gradientbbs0S9DSa)"></use></g></g></g></svg>