<?xml version="1.0" encoding="UTF-8" standalone="no"?>
<!DOCTYPE svg PUBLIC "-//W3C//DTD SVG 1.1//EN" "http://www.w3.org/Graphics/SVG/1.1/DTD/svg11.dtd">
<svg version="1.1" xmlns="http://www.w3.org/2000/svg" xmlns:xlink="http://www.w3.org/1999/xlink" preserveAspectRatio="xMidYMid meet" viewBox="0 0 1920 1200" width="1920" height="1200"><defs><path d="M541.18 942.25L659.76 1175.19L422.59 1175.19L185.43 1175.19L304 942.25L422.59 709.31L541.18 942.25Z" id="bdGXNAHoN"></path><linearGradient id="gradientb4vWwtuGU" gradientUnits="userSpaceOnUse" x1="422.6" y1="1175.19" x2="422.6" y2="709.31"><stop style="stop-color: #fc7e99;stop-opacity: 1" offset="0%"></stop><stop style="stop-color: #f3b5ca;stop-opacity: 1" offset="100%"></stop></linearGradient><path d="M282.48 958.15L405.6 1200L159.35 1200L-86.89 1200L36.22 958.15L159.35 716.29L282.48 958.15Z" id="aTBiZDqaV"></path><linearGradient id="gradientd3fa2EcfDG" gradientUnits="userSpaceOnUse" x1="159.35" y1="1200" x2="159.35" y2="716.29"><stop style="stop-color: #c6c9db;stop-opacity: 1" offset="0%"></stop><stop style="stop-color: #d7d7e6;stop-opacity: 1" offset="100%"></stop></linearGradient><path d="M1109.53 1016.99L1202.69 1200L1016.36 1200L830.04 1200L923.19 1016.99L1016.36 833.98L1109.53 1016.99Z" id="b2UXuG8iOW"></path><linearGradient id="gradientc1rI5OYWHH" gradientUnits="userSpaceOnUse" x1="1016.36" y1="1200" x2="1016.36" y2="833.98"><stop style="stop-color: #c6c9db;stop-opacity: 1" offset="0%"></stop><stop style="stop-color: #d7d7e6;stop-opacity: 1" offset="100%"></stop></linearGradient><path d="M1919.79 1023.68L2009.55 1200L1830.02 1200L1650.51 1200L1740.26 1023.68L1830.02 847.36L1919.79 1023.68Z" id="b51EwRwP6t"></path><linearGradient id="gradiente9LuSLgu" gradientUnits="userSpaceOnUse" x1="1830.03" y1="1200" x2="1830.03" y2="847.36"><stop style="stop-color: #c6c9db;stop-opacity: 1" offset="0%"></stop><stop style="stop-color: #d7d7e6;stop-opacity: 1" offset="100%"></stop></linearGradient><path d="M880.13 1043.08L964.67 1200L795.59 1200L626.51 1200L711.04 1043.08L795.59 886.16L880.13 1043.08Z" id="e2fRhYYFdK"></path><linearGradient id="gradientc3xqVq1IR" gradientUnits="userSpaceOnUse" x1="795.59" y1="1200" x2="795.59" y2="886.16"><stop style="stop-color: #c6c9db;stop-opacity: 1" offset="0%"></stop><stop style="stop-color: #d7d7e6;stop-opacity: 1" offset="100%"></stop></linearGradient><path d="M1668.51 1037.05L1751.46 1200L1585.56 1200L1419.66 1200L1502.6 1037.05L1585.56 874.11L1668.51 1037.05Z" id="b3K7Ke3wcp"></path><linearGradient id="gradiente6t6IXi7rZ" gradientUnits="userSpaceOnUse" x1="1585.56" y1="1200" x2="1585.56" y2="874.11"><stop style="stop-color: #c6c9db;stop-opacity: 1" offset="0%"></stop><stop style="stop-color: #d7d7e6;stop-opacity: 1" offset="100%"></stop></linearGradient><path d="M1368.35 974.19L1483.3 1200L1253.39 1200L1023.5 1200L1138.43 974.19L1253.39 748.39L1368.35 974.19Z" id="g2n3uk8oGv"></path><linearGradient id="gradienth6qKkblm3Y" gradientUnits="userSpaceOnUse" x1="1253.4" y1="1200" x2="1253.4" y2="748.39"><stop style="stop-color: #c6c9db;stop-opacity: 1" offset="0%"></stop><stop style="stop-color: #d7d7e6;stop-opacity: 1" offset="100%"></stop></linearGradient><path d="M647.72 1021.32L738.68 1200L556.75 1200L374.84 1200L465.79 1021.32L556.75 842.65L647.72 1021.32Z" id="c6o5K0sff"></path><linearGradient id="gradienta3RbN7eCR" gradientUnits="userSpaceOnUse" x1="556.76" y1="1200" x2="556.76" y2="842.65"><stop style="stop-color: #c6c9db;stop-opacity: 1" offset="0%"></stop><stop style="stop-color: #d7d7e6;stop-opacity: 1" offset="100%"></stop></linearGradient><path d="M556.76 -172.37L1023.5 -172.37L1023.5 -35.34L556.76 -35.34L556.76 -172.37Z" id="f5V2n12SE"></path></defs><g><g><g><use xlink:href="#bdGXNAHoN" opacity="1" fill="url(#gradientb4vWwtuGU)"></use></g><g><g><use xlink:href="#aTBiZDqaV" opacity="1" fill="url(#gradientd3fa2EcfDG)"></use></g><g><use xlink:href="#b2UXuG8iOW" opacity="1" fill="url(#gradientc1rI5OYWHH)"></use></g><g><use xlink:href="#b51EwRwP6t" opacity="1" fill="url(#gradiente9LuSLgu)"></use></g><g><use xlink:href="#e2fRhYYFdK" opacity="1" fill="url(#gradientc3xqVq1IR)"></use></g><g><use xlink:href="#b3K7Ke3wcp" opacity="1" fill="url(#gradiente6t6IXi7rZ)"></use></g><g><use xlink:href="#g2n3uk8oGv" opacity="1" fill="url(#gradienth6qKkblm3Y)"></use></g><g><use xlink:href="#c6o5K0sff" opacity="1" fill="url(#gradienta3RbN7eCR)"></use></g></g><g><use xlink:href="#f5V2n12SE" opacity="1" fill="#d8d8d8" fill-opacity="1"></use></g></g></g></svg>