<?xml version="1.0" encoding="UTF-8" standalone="no"?>
<!DOCTYPE svg PUBLIC "-//W3C//DTD SVG 1.1//EN" "http://www.w3.org/Graphics/SVG/1.1/DTD/svg11.dtd">
<svg version="1.1" xmlns="http://www.w3.org/2000/svg" xmlns:xlink="http://www.w3.org/1999/xlink" preserveAspectRatio="xMidYMid meet" viewBox="0 0 1920 1200" width="1920" height="1200"><defs><path d="M1837.85 944.58L1967.88 1200L1707.82 1200L1447.76 1200L1577.78 944.58L1707.82 689.15L1837.85 944.58Z" id="aF36Q2lI6"></path><linearGradient id="gradienta3suGCgv6T" gradientUnits="userSpaceOnUse" x1="1707.82" y1="1200" x2="1707.82" y2="689.15"><stop style="stop-color: #fca5b7;stop-opacity: 1" offset="0%"></stop><stop style="stop-color: #f6cad9;stop-opacity: 1" offset="100%"></stop></linearGradient><path d="M474.4 934.8L609.4 1200L339.38 1200L69.38 1200L204.37 934.8L339.38 669.6L474.4 934.8Z" id="a2pxHjUANr"></path><linearGradient id="gradientd6I6Q22OC" gradientUnits="userSpaceOnUse" x1="339.39" y1="1200" x2="339.39" y2="669.6"><stop style="stop-color: #d8d8e7;stop-opacity: 1" offset="0%"></stop><stop style="stop-color: #e3e3ef;stop-opacity: 1" offset="100%"></stop></linearGradient><path d="M1247.21 999.33L1349.37 1200L1145.05 1200L940.74 1200L1042.88 999.33L1145.05 798.65L1247.21 999.33Z" id="d72JT8WS1X"></path><linearGradient id="gradienthpPUm0Bge" gradientUnits="userSpaceOnUse" x1="1145.05" y1="1200" x2="1145.05" y2="798.65"><stop style="stop-color: #d8d8e7;stop-opacity: 1" offset="0%"></stop><stop style="stop-color: #e3e3ef;stop-opacity: 1" offset="100%"></stop></linearGradient><path d="M2081.45 1006.15L2179.87 1199.49L1983.02 1199.49L1786.17 1199.49L1884.59 1006.15L1983.02 812.81L2081.45 1006.15Z" id="dyalXFP9"></path><linearGradient id="gradienta5X1F2DIW" gradientUnits="userSpaceOnUse" x1="1983.02" y1="1199.49" x2="1983.02" y2="812.81"><stop style="stop-color: #d8d8e7;stop-opacity: 1" offset="0%"></stop><stop style="stop-color: #e3e3ef;stop-opacity: 1" offset="100%"></stop></linearGradient><path d="M994.7 1027.93L1087.39 1200L901.99 1200L716.6 1200L809.29 1027.93L901.99 855.86L994.7 1027.93Z" id="c2BTK4O1vK"></path><linearGradient id="gradientb4eADgWd4u" gradientUnits="userSpaceOnUse" x1="901.99" y1="1200" x2="901.99" y2="855.86"><stop style="stop-color: #d8d8e7;stop-opacity: 1" offset="0%"></stop><stop style="stop-color: #e3e3ef;stop-opacity: 1" offset="100%"></stop></linearGradient><path d="M148.08 1021.32L239.04 1200L57.12 1200L-124.8 1200L-33.85 1021.32L57.12 842.65L148.08 1021.32Z" id="a2hHxNlZ"></path><linearGradient id="gradientb13covxiIY" gradientUnits="userSpaceOnUse" x1="57.12" y1="1200" x2="57.12" y2="842.65"><stop style="stop-color: #d8d8e7;stop-opacity: 1" offset="0%"></stop><stop style="stop-color: #e3e3ef;stop-opacity: 1" offset="100%"></stop></linearGradient><path d="M1610.8 952.4L1736.84 1200L1484.74 1200L1232.65 1200L1358.69 952.4L1484.74 704.79L1610.8 952.4Z" id="e1r7smZSg0"></path><linearGradient id="gradientf32dzk8ZH5" gradientUnits="userSpaceOnUse" x1="1484.75" y1="1200" x2="1484.75" y2="704.79"><stop style="stop-color: #d8d8e7;stop-opacity: 1" offset="0%"></stop><stop style="stop-color: #e3e3ef;stop-opacity: 1" offset="100%"></stop></linearGradient><path d="M720.7 959.99L842.88 1200L598.51 1200L354.14 1200L476.32 959.99L598.51 719.98L720.7 959.99Z" id="bzRtEq9Jt"></path><linearGradient id="gradienta1YatsaHGt" gradientUnits="userSpaceOnUse" x1="598.51" y1="1200" x2="598.51" y2="719.98"><stop style="stop-color: #d8d8e7;stop-opacity: 1" offset="0%"></stop><stop style="stop-color: #e3e3ef;stop-opacity: 1" offset="100%"></stop></linearGradient></defs><g><g><g><use xlink:href="#aF36Q2lI6" opacity="1" fill="url(#gradienta3suGCgv6T)"></use></g><g><use xlink:href="#a2pxHjUANr" opacity="1" fill="url(#gradientd6I6Q22OC)"></use></g><g><use xlink:href="#d72JT8WS1X" opacity="1" fill="url(#gradienthpPUm0Bge)"></use></g><g><use xlink:href="#dyalXFP9" opacity="1" fill="url(#gradienta5X1F2DIW)"></use></g><g><use xlink:href="#c2BTK4O1vK" opacity="1" fill="url(#gradientb4eADgWd4u)"></use></g><g><use xlink:href="#a2hHxNlZ" opacity="1" fill="url(#gradientb13covxiIY)"></use></g><g><use xlink:href="#e1r7smZSg0" opacity="1" fill="url(#gradientf32dzk8ZH5)"></use></g><g><use xlink:href="#bzRtEq9Jt" opacity="1" fill="url(#gradienta1YatsaHGt)"></use></g></g></g></svg>