<svg id="Layer_1" data-name="Layer 1" xmlns="http://www.w3.org/2000/svg" width="174.43" height="30.35" viewBox="0 0 174.43 30.35"><defs><style>.cls-1{fill:#fff;}.cls-2{fill:#53d8fb;stroke:#53d8fb;stroke-miterlimit:10;}.cls-3{fill:#ee4266;}</style></defs><title>LogoWhite</title><path class="cls-1" d="M29.58,21,30,26h.15l.44-5,3.69-15h3.46L41.28,21,41.71,26h.16l.43-5,2.44-15h5L43.6,33.59H40.1L36.25,18.42l-.51-4.28h-.19l-.47,4.32L31.23,33.59H27.57L21.44,5.89H26.9Z" transform="translate(0 -4.88)"/><path class="cls-1" d="M49.1,14.93a10.81,10.81,0,0,1,2.95-1.14,16.8,16.8,0,0,1,4-.43c2.23,0,3.78.57,4.66,1.73A8,8,0,0,1,62,20q0,1.84-.09,3.63c-.07,1.19-.12,2.36-.14,3.5s0,2.24.06,3.3a12.55,12.55,0,0,0,.53,3H58.57L57.82,31h-.16a5.26,5.26,0,0,1-1.76,1.88,5.13,5.13,0,0,1-2.87.75,4.6,4.6,0,0,1-3.66-1.55A6.16,6.16,0,0,1,48,28a5.39,5.39,0,0,1,2.51-5,12,12,0,0,1,6.8-1.25,6.89,6.89,0,0,0-.29-3.3,2.09,2.09,0,0,0-2.11-1,11.62,11.62,0,0,0-2.43.28,8.81,8.81,0,0,0-2.24.78Zm5.62,14.73a2.72,2.72,0,0,0,1.73-.53,3.51,3.51,0,0,0,1-1.16V24.71a7.77,7.77,0,0,0-1.73,0,4.68,4.68,0,0,0-1.45.35,2.46,2.46,0,0,0-1,.81,2.37,2.37,0,0,0-.37,1.36A2.93,2.93,0,0,0,53.36,29,1.63,1.63,0,0,0,54.72,29.66Z" transform="translate(0 -4.88)"/><path class="cls-1" d="M63.05,13.75h2.16V10.06L69.88,8.6v5.15h3.81v4.16H69.88v8.57a6,6,0,0,0,.34,2.4,1.2,1.2,0,0,0,1.19.7,4.24,4.24,0,0,0,1.06-.12,5.7,5.7,0,0,0,1-.35l.59,3.73a10.44,10.44,0,0,1-2,.73,9.37,9.37,0,0,1-2.39.29,4.19,4.19,0,0,1-3.36-1.29c-.75-.87-1.12-2.32-1.12-4.36V17.91H63.05Z" transform="translate(0 -4.88)"/><path class="cls-1" d="M86.89,32.33a6.5,6.5,0,0,1-2.35,1.18,10.09,10.09,0,0,1-2.75.39,7.08,7.08,0,0,1-3.36-.72,5.85,5.85,0,0,1-2.22-2.09A9.28,9.28,0,0,1,75,27.83a22.16,22.16,0,0,1-.37-4.26q0-5.14,1.84-7.74a6.23,6.23,0,0,1,5.42-2.59,11,11,0,0,1,2.89.31,9.28,9.28,0,0,1,2,.79l-1.1,3.89a7.58,7.58,0,0,0-1.36-.53,5.84,5.84,0,0,0-1.55-.18A2.69,2.69,0,0,0,80.25,19a9.66,9.66,0,0,0-.82,4.61,9.79,9.79,0,0,0,.84,4.36A2.82,2.82,0,0,0,83,29.62a4.82,4.82,0,0,0,1.67-.25,6.16,6.16,0,0,0,1.28-.65Z" transform="translate(0 -4.88)"/><path class="cls-1" d="M98.09,33.39V21.53a7.17,7.17,0,0,0-.49-3.07,1.86,1.86,0,0,0-1.79-.94,2.58,2.58,0,0,0-1.73.67A3.27,3.27,0,0,0,93,19.88V33.39H88.35V5.89H93v9.63h.12A6.26,6.26,0,0,1,95,13.87a5.7,5.7,0,0,1,2.81-.63,5.92,5.92,0,0,1,2.12.35,3.54,3.54,0,0,1,1.54,1.18,5.85,5.85,0,0,1,.94,2.22,16.39,16.39,0,0,1,.31,3.52V33.39Z" transform="translate(0 -4.88)"/><path class="cls-1" d="M110,27a4.84,4.84,0,0,0,.28,2,.92.92,0,0,0,.9.59,3.08,3.08,0,0,0,.73-.08,4.72,4.72,0,0,0,.84-.27l.43,3.77a5.22,5.22,0,0,1-1.61.59,10,10,0,0,1-2.32.27,4,4,0,0,1-2.94-1,4.6,4.6,0,0,1-1-3.34V5.89H110Z" transform="translate(0 -4.88)"/><path class="cls-1" d="M114,8.21a2.68,2.68,0,0,1,.74-1.94,2.85,2.85,0,0,1,2.13-.77,3.16,3.16,0,0,1,2.2.75,2.5,2.5,0,0,1,.82,2,2.42,2.42,0,0,1-.82,1.93,3.28,3.28,0,0,1-2.2.7,3,3,0,0,1-2.13-.72A2.58,2.58,0,0,1,114,8.21Zm.51,5.54h4.67V33.39h-4.67Z" transform="translate(0 -4.88)"/><path class="cls-1" d="M128.85,28.17a2,2,0,0,0-.53-1.4A6.36,6.36,0,0,0,127,25.71c-.55-.33-1.13-.66-1.75-1a9.36,9.36,0,0,1-1.74-1.26A5.57,5.57,0,0,1,121.58,19a5.77,5.77,0,0,1,1.49-4.24,6,6,0,0,1,4.4-1.49,13.68,13.68,0,0,1,3.26.37,8.65,8.65,0,0,1,2.44.93l-1.1,3.61a15.81,15.81,0,0,0-1.81-.61,7.61,7.61,0,0,0-2.08-.29c-1.28,0-1.93.53-1.93,1.61a1.59,1.59,0,0,0,.54,1.23,7.37,7.37,0,0,0,1.35,1l1.75,1a8.7,8.7,0,0,1,1.75,1.28,5.87,5.87,0,0,1,1.88,4.57,5.89,5.89,0,0,1-1.65,4.36A6.65,6.65,0,0,1,127,33.9a12.9,12.9,0,0,1-3.16-.39,8,8,0,0,1-2.5-1l1.3-3.77a10.25,10.25,0,0,0,1.91.82,7.08,7.08,0,0,0,2.26.36,2.5,2.5,0,0,0,1.49-.42A1.49,1.49,0,0,0,128.85,28.17Z" transform="translate(0 -4.88)"/><path class="cls-1" d="M133.76,13.75h2.16V10.06l4.67-1.46v5.15h3.82v4.16h-3.82v8.57a6.21,6.21,0,0,0,.34,2.4,1.2,1.2,0,0,0,1.2.7,4.35,4.35,0,0,0,1.06-.12,5.9,5.9,0,0,0,1-.35l.59,3.73a10.44,10.44,0,0,1-2,.73,9.32,9.32,0,0,1-2.39.29A4.22,4.22,0,0,1,137,32.57c-.75-.87-1.12-2.32-1.12-4.36V17.91h-2.16Z" transform="translate(0 -4.88)"/><polygon class="cls-2" points="157.4 5.74 149.38 1 149.38 10.47 157.4 5.74"/><polygon class="cls-2" points="157.4 15.24 149.38 10.5 149.38 19.98 157.4 15.24"/><polygon class="cls-2" points="157.4 15.24 149.38 10.5 149.38 19.98 157.4 15.24"/><polygon class="cls-2" points="157.4 24.74 149.38 20 149.38 29.48 157.4 24.74"/><polygon class="cls-2" points="165.42 10.49 157.4 5.75 157.4 15.23 165.42 10.49"/><polygon class="cls-2" points="165.42 10.49 157.4 5.75 157.4 15.23 165.42 10.49"/><polygon class="cls-2" points="165.42 19.99 157.4 15.25 157.4 24.73 165.42 19.99"/><polygon class="cls-2" points="173.44 15.24 165.42 10.5 165.42 19.98 173.44 15.24"/><rect class="cls-3" x="0.5" y="0.5" width="5.96" height="29"/><path class="cls-3" d="M6,5.88v28H1v-28H6m1-1H0v30H7v-30Z" transform="translate(0 -4.88)"/><rect class="cls-3" x="11.26" y="0.5" width="5.96" height="29"/><path class="cls-3" d="M16.72,5.88v28h-5v-28h5m1-1h-7v30h7v-30Z" transform="translate(0 -4.88)"/></svg>